<svg width="653" height="629" viewBox="0 0 653 629" fill="none" xmlns="http://www.w3.org/2000/svg">
<path d="M641.21 386.991C654.841 449.494 635.212 493.247 582.324 518.248C529.435 543.249 481.999 558.563 440.015 564.188C398.032 569.813 357.138 579.501 317.336 593.252C277.533 607.003 233.368 610.441 184.842 603.565C136.315 596.69 89.4241 575.126 44.1689 538.874C-1.08627 502.622 -10.9006 452.619 14.7258 388.866C40.3522 325.112 56.7095 270.422 63.7976 224.794C70.8858 179.167 90.5145 143.227 122.684 116.976C154.853 90.7243 185.932 62.5977 215.92 32.5961C245.909 2.5944 279.986 -6.4686 318.154 5.40705C356.321 17.2827 394.76 27.5958 433.472 36.3463C472.185 45.0968 521.802 57.5974 582.324 73.8483C642.846 90.0992 664.383 130.726 646.935 195.73C629.487 260.734 627.579 324.487 641.21 386.991Z" fill="#7F45BC" fill-opacity="0.6"/>
<path d="M628.785 399.958C591.941 458.68 553.254 515.991 512.726 571.891C472.198 627.79 421.143 642.188 359.56 615.086C297.978 587.983 243.239 559.751 195.342 530.39C147.445 501.028 99.5474 457.269 51.6503 399.111C3.75312 340.953 3.48995 282.513 50.8608 223.79C98.2316 165.068 145.339 117.92 192.184 82.348C239.028 46.7756 292.189 24.7547 351.665 16.2851C411.142 7.81548 456.934 30.4011 489.041 84.0419C521.148 137.683 561.676 189.065 610.626 238.189C659.576 287.312 665.629 341.235 628.785 399.958Z" fill="#06D6A0" fill-opacity="0.9"/>
<path d="M166.527 383.431C155.824 391.411 152.79 405.452 152.79 405.452C152.79 405.452 167.11 406.554 177.814 398.574C188.517 390.594 191.55 376.554 191.55 376.554C191.55 376.554 177.23 375.452 166.527 383.431Z" fill="#48475D"/>
<path d="M170.986 387.178C165.842 399.499 152.958 405.848 152.958 405.848C152.958 405.848 148.415 392.221 153.559 379.9C158.704 367.58 171.587 361.231 171.587 361.231C171.587 361.231 176.13 374.857 170.986 387.178Z" fill="#6B6983"/>
<path d="M478.928 351.56C477.791 343.899 477.49 336.136 478.032 328.41L478.928 315.622C473.991 325.448 475.107 338.38 478.928 351.56Z" fill="#CACACA"/>
<path d="M482.778 353.7C482.231 349.128 482.086 344.517 482.347 339.919L482.778 332.308C480.403 338.156 480.94 345.854 482.778 353.7Z" fill="#CACACA"/>
<path d="M499.891 363.113V367.391C499.89 367.731 499.754 368.057 499.513 368.297C499.273 368.537 498.948 368.673 498.608 368.675H496.469C496.413 368.675 496.357 368.686 496.305 368.707C496.253 368.729 496.206 368.76 496.166 368.8C496.126 368.84 496.095 368.887 496.073 368.939C496.052 368.991 496.041 369.047 496.041 369.103V404.185C496.039 404.525 495.904 404.851 495.663 405.091C495.423 405.331 495.098 405.467 494.758 405.469H468.663C468.323 405.469 467.997 405.333 467.756 405.093C467.516 404.852 467.38 404.526 467.38 404.185V369.103C467.38 368.989 467.335 368.881 467.254 368.801C467.174 368.72 467.066 368.675 466.952 368.675H464.386C464.045 368.675 463.719 368.539 463.479 368.299C463.238 368.058 463.103 367.732 463.102 367.391V363.113C463.102 362.944 463.135 362.777 463.2 362.622C463.264 362.466 463.358 362.324 463.478 362.205C463.597 362.086 463.738 361.991 463.894 361.927C464.05 361.862 464.217 361.829 464.386 361.83H498.608C498.948 361.831 499.274 361.966 499.514 362.207C499.755 362.447 499.89 362.773 499.891 363.113Z" fill="#F2F2F2"/>
<path d="M496.08 369.573H467.419V370.857H496.08V369.573Z" fill="#06D6A0"/>
<path d="M496.041 388.46C486.451 392.43 476.755 392.473 466.952 388.46V379.418C476.39 376.248 486.604 376.248 496.041 379.418V388.46Z" fill="#7F45BC"/>
<path d="M335.392 250.203C356.802 250.203 374.158 232.845 374.158 211.432C374.158 190.02 356.802 172.661 335.392 172.661C313.982 172.661 296.626 190.02 296.626 211.432C296.626 232.845 313.982 250.203 335.392 250.203Z" fill="#FBBEBE"/>
<path d="M371.6 177.984C365.804 168.571 356.732 161.635 346.129 158.511L341.37 161.985V157.474C338.824 157.085 336.247 156.935 333.672 157.026L329.566 160.742V157.335C323.487 158.09 317.63 160.097 312.365 163.229C307.1 166.362 302.541 170.551 298.976 175.533C290.059 188.389 288.554 206.275 297.324 219.234C299.731 211.834 302.653 204.891 305.061 197.492C306.954 197.75 308.871 197.76 310.766 197.52L313.695 190.685L314.513 197.231C323.592 196.44 337.058 194.703 345.664 193.112L344.827 188.089L349.835 192.262C352.471 191.656 354.037 191.105 353.908 190.684C360.309 201.005 368.142 207.596 374.543 217.917C376.974 203.364 379.772 191.264 371.6 177.984Z" fill="#2F2E41"/>
<path d="M418.767 311.134C417.434 303.113 416.059 294.938 412.331 287.712C409.882 282.979 405.993 278.469 400.751 277.533C399.718 277.441 398.704 277.206 397.736 276.835C396.2 276.095 375.559 264.311 372.279 262.258C369.462 260.496 365.015 257.234 362.773 257.234C360.518 257.184 351.869 259.198 318.111 256.558C318.111 256.558 308.837 260.214 301.662 264.647C301.553 264.575 266.624 283.334 265.312 283.285C262.827 283.18 260.517 284.772 259.092 286.776C257.668 288.78 257 291.26 256.3 293.659C263.929 310.651 270.91 327.664 278.539 344.656C278.897 345.296 279.086 346.016 279.091 346.749C278.938 347.51 278.613 348.225 278.142 348.842C274.4 354.853 274.519 362.413 274.928 369.478C275.337 376.543 275.843 384.006 272.686 390.338C271.827 392.077 270.711 393.668 269.894 395.407C267.981 399.344 267.29 411.938 268.407 416.169L408.362 420.179C405.353 411.906 418.767 311.134 418.767 311.134Z" fill="#7F45BC"/>
<path d="M244.203 345.41C243.924 347.43 243.896 349.477 244.119 351.504L246.125 380.316C246.313 383.031 246.499 385.74 246.754 388.449C247.235 393.705 247.954 398.921 248.846 404.128C248.866 404.867 249.179 405.569 249.715 406.078C250.252 406.587 250.968 406.862 251.708 406.843C260.538 408.712 269.661 408.637 278.672 408.128C292.424 407.361 327.605 405.908 329.754 403.116C331.903 400.323 330.651 395.807 327.848 393.549C325.046 391.291 278.619 385.785 278.619 385.785C279.073 382.19 280.441 378.804 281.739 375.391C284.071 369.336 286.249 363.083 286.291 356.597C286.333 350.112 283.89 343.293 278.577 339.577C274.208 336.527 268.582 335.961 263.257 336.087C259.382 336.198 252.688 335.27 249.15 336.785C246.349 338.018 244.726 342.667 244.203 345.41Z" fill="#FBBEBE"/>
<path d="M255.897 294.176C255.217 294.888 254.69 295.732 254.347 296.655C248.705 309.372 245.373 322.993 244.506 336.88C244.521 337.557 244.365 338.227 244.052 338.828C243.743 339.227 243.4 339.599 243.026 339.937C242.7 340.324 242.453 340.772 242.299 341.254C242.146 341.736 242.089 342.244 242.132 342.748C242.174 343.253 242.316 343.743 242.549 344.193C242.781 344.642 243.1 345.042 243.487 345.368C243.55 345.422 243.615 345.473 243.682 345.522C244.834 343.355 247.591 342.646 250.041 342.458C261.775 341.53 273.236 346.989 285.005 346.577C284.174 343.708 282.98 340.95 282.303 338.046C279.308 325.152 286.777 311.113 282.198 298.694C281.284 296.208 279.755 293.765 277.347 292.676C276.35 292.274 275.307 291.998 274.241 291.854C271.268 291.316 265.348 289.019 262.473 289.941C261.411 290.283 260.993 291.281 260.113 291.884C258.777 292.738 257.004 293.052 255.897 294.176Z" fill="#7F45BC"/>
<path d="M418.85 336.785C415.312 335.27 408.618 336.198 404.743 336.087C399.418 335.961 393.792 336.527 389.423 339.577C384.11 343.293 381.667 350.112 381.709 356.597C381.751 363.083 383.929 369.336 386.26 375.391C387.559 378.804 388.927 382.19 389.381 385.785C389.381 385.785 342.954 391.29 340.152 393.549C337.349 395.807 336.097 400.323 338.246 403.116C340.395 405.908 407.462 408.712 416.292 406.843C417.031 406.862 417.748 406.587 418.284 406.078C418.821 405.569 419.134 404.867 419.154 404.128C420.046 398.92 420.765 393.706 421.246 388.449C421.501 385.74 421.687 383.031 421.875 380.316L423.881 351.504C424.104 349.477 424.076 347.43 423.797 345.41C423.274 342.667 421.651 338.018 418.85 336.785Z" fill="#FBBEBE"/>
<path d="M407.887 291.884C407.007 291.281 406.589 290.283 405.527 289.941C402.652 289.019 396.732 291.316 393.759 291.854C392.693 291.998 391.65 292.274 390.653 292.676C388.245 293.765 386.716 296.208 385.802 298.694C381.223 311.113 388.692 325.152 385.697 338.046C385.02 340.95 383.826 343.708 382.995 346.577C394.764 346.989 406.225 341.53 417.959 342.458C420.409 342.646 423.166 343.355 424.318 345.522C424.385 345.473 424.45 345.422 424.513 345.368C424.9 345.042 425.219 344.642 425.451 344.193C425.684 343.743 425.826 343.253 425.868 342.748C425.911 342.244 425.854 341.736 425.701 341.254C425.547 340.772 425.3 340.324 424.974 339.937C424.6 339.599 424.257 339.227 423.948 338.828C423.635 338.227 423.479 337.557 423.494 336.88C422.627 322.993 419.295 309.372 413.653 296.655C413.31 295.732 412.783 294.888 412.103 294.176C410.996 293.052 409.223 292.738 407.887 291.884Z" fill="#7F45BC"/>
<path d="M323.911 408.219C329.689 408.219 334.374 403.534 334.374 397.755C334.374 391.976 329.689 387.291 323.911 387.291C318.132 387.291 313.448 391.976 313.448 397.755C313.448 403.534 318.132 408.219 323.911 408.219Z" fill="#FBBEBE"/>
<path d="M347.079 408.219C352.857 408.219 357.542 403.534 357.542 397.755C357.542 391.976 352.857 387.291 347.079 387.291C341.3 387.291 336.616 391.976 336.616 397.755C336.616 403.534 341.3 408.219 347.079 408.219Z" fill="#FBBEBE"/>
<path d="M411.664 421.335H267.919C266.241 421.333 264.632 420.666 263.445 419.479C262.258 418.292 261.59 416.683 261.589 415.004V327.787C261.59 326.108 262.258 324.499 263.445 323.312C264.632 322.125 266.241 321.458 267.919 321.456H411.664C413.342 321.458 414.951 322.125 416.138 323.312C417.325 324.499 417.992 326.108 417.994 327.787V415.004C417.992 416.683 417.325 418.292 416.138 419.479C414.951 420.666 413.342 421.333 411.664 421.335Z" fill="#3F3D56"/>
<path d="M339.443 375.584C341.756 375.584 343.631 373.709 343.631 371.396C343.631 369.082 341.756 367.207 339.443 367.207C337.13 367.207 335.254 369.082 335.254 371.396C335.254 373.709 337.13 375.584 339.443 375.584Z" fill="#06D6A0"/>
<path d="M575 403.743H93V418.557H121.51V422H546.501V418.557H575V403.743Z" fill="#F7F7F7"/>
<path d="M299.744 225.883C293.515 225.883 288.466 220.423 288.466 213.687V207.589C288.466 200.853 293.515 195.392 299.744 195.392L299.744 225.883Z" fill="#7F45BC"/>
<path d="M371.731 195.392C377.96 195.392 383.009 200.853 383.009 207.589V213.687C383.009 220.423 377.96 225.883 371.731 225.883V195.392Z" fill="#7F45BC"/>
<path d="M377.641 208.547H375.852C375.852 184.006 357.388 164.04 334.694 164.04C311.999 164.04 293.536 184.006 293.536 208.547H291.746C291.746 182.939 311.012 162.105 334.694 162.105C358.375 162.105 377.641 182.939 377.641 208.547Z" fill="#7F45BC"/>
</svg>
