<svg xmlns="http://www.w3.org/2000/svg" version="1.1" xmlns:xlink="http://www.w3.org/1999/xlink" xmlns:svgjs="http://svgjs.dev/svgjs" width="1000" height="623" viewBox="0 0 1000 623"><g transform="matrix(1,0,0,1,-0.6060430187409906,0.2522267206477409)"><svg viewBox="0 0 396 247" data-background-color="#181616" preserveAspectRatio="xMidYMid meet" height="623" width="1000" xmlns="http://www.w3.org/2000/svg" xmlns:xlink="http://www.w3.org/1999/xlink"><g id="tight-bounds" transform="matrix(1,0,0,1,0.2399930354214348,-0.09999999999999432)"><svg viewBox="0 0 395.52 247.2" height="247.2" width="395.52"><g><svg></svg></g><g><svg viewBox="0 0 395.52 247.2" height="247.2" width="395.52"><g transform="matrix(1,0,0,1,0,86.4789368770764)"><svg viewBox="0 0 395.52 74.24212624584717" height="74.24212624584717" width="395.52"><g><svg viewBox="0 0 395.52 74.24212624584717" height="74.24212624584717" width="395.52"><g><svg viewBox="0 0 395.52 74.24212624584717" height="74.24212624584717" width="395.52"><g id="textblocktransform"><svg viewBox="0 0 395.52 74.24212624584717" height="74.24212624584717" width="395.52" id="textblock"><g><svg viewBox="0 0 395.52 74.24212624584717" height="74.24212624584717" width="395.52"><g transform="matrix(1,0,0,1,0,0)"><svg width="395.52" viewBox="2.8499999046325684 -38.79999923706055 210.67999267578125 39.54999923706055" height="74.24212624584717" data-palette-color="#ffffff"><path d="M19.55 0.75L19.55 0.75Q15.65 0.75 12.55-0.45 9.45-1.65 7.3-3.98 5.15-6.3 4-9.65 2.85-13 2.85-17.35L2.85-17.35Q2.85-21.7 4.17-25.05 5.5-28.4 7.8-30.73 10.1-33.05 13.2-34.25 16.3-35.45 19.85-35.45L19.85-35.45Q22-35.45 23.75-35.13 25.5-34.8 26.8-34.4 28.1-34 28.95-33.55 29.8-33.1 30.15-32.9L30.15-32.9 28.3-27.75Q27.1-28.5 24.88-29.18 22.65-29.85 20.05-29.85L20.05-29.85Q17.8-29.85 15.85-29.08 13.9-28.3 12.48-26.75 11.05-25.2 10.25-22.85 9.45-20.5 9.45-17.4L9.45-17.4Q9.45-14.65 10.08-12.35 10.7-10.05 12-8.38 13.3-6.7 15.3-5.78 17.3-4.85 20.1-4.85L20.1-4.85Q23.45-4.85 25.55-5.53 27.65-6.2 28.8-6.8L28.8-6.8 30.5-1.65Q29.9-1.25 28.88-0.85 27.85-0.45 26.45-0.08 25.05 0.3 23.3 0.53 21.55 0.75 19.55 0.75ZM58.75-13.1L58.75-13.1Q58.75-10 57.85-7.45 56.95-4.9 55.3-3.1 53.65-1.3 51.32-0.3 49 0.7 46.2 0.7L46.2 0.7Q43.4 0.7 41.1-0.3 38.8-1.3 37.15-3.1 35.5-4.9 34.57-7.45 33.65-10 33.65-13.1L33.65-13.1Q33.65-16.2 34.57-18.73 35.5-21.25 37.17-23.05 38.85-24.85 41.15-25.83 43.45-26.8 46.2-26.8L46.2-26.8Q48.95-26.8 51.27-25.83 53.6-24.85 55.25-23.05 56.9-21.25 57.82-18.73 58.75-16.2 58.75-13.1ZM52.55-13.1L52.55-13.1Q52.55-17 50.87-19.28 49.2-21.55 46.2-21.55L46.2-21.55Q43.2-21.55 41.52-19.28 39.85-17 39.85-13.1L39.85-13.1Q39.85-9.15 41.52-6.85 43.2-4.55 46.2-4.55L46.2-4.55Q49.2-4.55 50.87-6.85 52.55-9.15 52.55-13.1ZM69.75-13.15L69.75-13.15Q69.75-9.15 71.65-6.88 73.55-4.6 76.9-4.6L76.9-4.6Q78.35-4.6 79.37-4.73 80.4-4.85 81.05-5L81.05-5 81.05-20Q80.25-20.55 78.92-21.03 77.6-21.5 76.1-21.5L76.1-21.5Q72.8-21.5 71.27-19.25 69.75-17 69.75-13.15ZM87.1-38.8L87.1-0.8Q85.3-0.25 82.57 0.2 79.85 0.65 76.85 0.65L76.85 0.65Q73.75 0.65 71.3-0.3 68.85-1.25 67.12-3.03 65.4-4.8 64.47-7.33 63.55-9.85 63.55-13L63.55-13Q63.55-16.1 64.32-18.63 65.1-21.15 66.6-22.95 68.1-24.75 70.25-25.73 72.4-26.7 75.2-26.7L75.2-26.7Q77.1-26.7 78.55-26.25 80-25.8 81.05-25.25L81.05-25.25 81.05-37.8 87.1-38.8ZM93.34-12.95L93.34-12.95Q93.34-16.4 94.37-19 95.39-21.6 97.09-23.33 98.79-25.05 100.99-25.93 103.19-26.8 105.49-26.8L105.49-26.8Q110.89-26.8 113.92-23.45 116.94-20.1 116.94-13.45L116.94-13.45Q116.94-12.95 116.92-12.33 116.89-11.7 116.84-11.2L116.84-11.2 99.59-11.2Q99.84-8.05 101.82-6.33 103.79-4.6 107.54-4.6L107.54-4.6Q109.74-4.6 111.57-5 113.39-5.4 114.44-5.85L114.44-5.85 115.24-0.9Q114.74-0.65 113.87-0.38 112.99-0.1 111.87 0.13 110.74 0.35 109.44 0.5 108.14 0.65 106.79 0.65L106.79 0.65Q103.34 0.65 100.79-0.38 98.24-1.4 96.59-3.23 94.94-5.05 94.14-7.53 93.34-10 93.34-12.95ZM99.64-15.65L110.89-15.65Q110.89-16.9 110.54-18.03 110.19-19.15 109.52-19.98 108.84-20.8 107.87-21.28 106.89-21.75 105.54-21.75L105.54-21.75Q104.14-21.75 103.09-21.23 102.04-20.7 101.32-19.85 100.59-19 100.19-17.9 99.79-16.8 99.64-15.65L99.64-15.65ZM139.84-29.9L139.84-29.9Q134.49-29.9 131.67-26.58 128.84-23.25 128.84-17.35L128.84-17.35Q128.84-14.55 129.52-12.23 130.19-9.9 131.52-8.25 132.84-6.6 134.81-5.68 136.79-4.75 139.44-4.75L139.44-4.75Q141.09-4.75 142.29-4.88 143.49-5 144.19-5.2L144.19-5.2 144.19-17.65 150.49-17.65 150.49-1Q149.19-0.5 146.09 0.1 142.99 0.7 138.94 0.7L138.94 0.7Q135.19 0.7 132.09-0.5 128.99-1.7 126.82-4 124.64-6.3 123.44-9.65 122.24-13 122.24-17.35L122.24-17.35Q122.24-21.7 123.57-25.05 124.89-28.4 127.19-30.73 129.49-33.05 132.59-34.25 135.69-35.45 139.19-35.45L139.19-35.45Q141.59-35.45 143.47-35.13 145.34-34.8 146.69-34.4 148.04-34 148.92-33.55 149.79-33.1 150.14-32.9L150.14-32.9 148.24-27.75Q146.74-28.65 144.52-29.28 142.29-29.9 139.84-29.9ZM173.44-25.8L172.39-20.7Q171.64-20.95 170.31-21.23 168.99-21.5 167.24-21.5L167.24-21.5Q166.24-21.5 165.11-21.3 163.99-21.1 163.54-20.95L163.54-20.95 163.54 0 157.49 0 157.49-24.9Q159.24-25.55 161.86-26.13 164.49-26.7 167.69-26.7L167.69-26.7Q168.29-26.7 169.09-26.63 169.89-26.55 170.69-26.43 171.49-26.3 172.24-26.13 172.99-25.95 173.44-25.8L173.44-25.8ZM183.74-26.15L183.74 0 177.69 0 177.69-26.15 183.74-26.15ZM184.39-33.8L184.39-33.8Q184.39-32.1 183.29-31.1 182.19-30.1 180.69-30.1L180.69-30.1Q179.14-30.1 178.04-31.1 176.94-32.1 176.94-33.8L176.94-33.8Q176.94-35.55 178.04-36.55 179.14-37.55 180.69-37.55L180.69-37.55Q182.19-37.55 183.29-36.55 184.39-35.55 184.39-33.8ZM196.18-13.15L196.18-13.15Q196.18-9.15 198.08-6.88 199.98-4.6 203.33-4.6L203.33-4.6Q204.78-4.6 205.81-4.73 206.83-4.85 207.48-5L207.48-5 207.48-20Q206.68-20.55 205.36-21.03 204.03-21.5 202.53-21.5L202.53-21.5Q199.23-21.5 197.71-19.25 196.18-17 196.18-13.15ZM213.53-38.8L213.53-0.8Q211.73-0.25 209.01 0.2 206.28 0.65 203.28 0.65L203.28 0.65Q200.18 0.65 197.73-0.3 195.28-1.25 193.56-3.03 191.83-4.8 190.91-7.33 189.98-9.85 189.98-13L189.98-13Q189.98-16.1 190.76-18.63 191.53-21.15 193.03-22.95 194.53-24.75 196.68-25.73 198.83-26.7 201.63-26.7L201.63-26.7Q203.53-26.7 204.98-26.25 206.43-25.8 207.48-25.25L207.48-25.25 207.48-37.8 213.53-38.8Z" opacity="1" transform="matrix(1,0,0,1,0,0)" fill="#ffffff" class="undefined-text-0" data-fill-palette-color="primary" id="text-0"></path></svg></g></svg></g></svg></g></svg></g></svg></g></svg></g><g mask="url(&quot;#382a79bb-50fd-4725-b192-8cc071d7e325&quot;)"><g transform="matrix(3.1844155844155844, 0, 0, 3.1844155844155844, 58.60104867910408, 1)"><svg xmlns="http://www.w3.org/2000/svg" xmlns:xlink="http://www.w3.org/1999/xlink" version="1.1" x="0" y="0" viewBox="6.300000190734863 11.5 87.39999389648438 77" style="enable-background:new 0 0 100 100;" xml:space="preserve" height="77" width="87.39999389648438" class="icon-none" data-fill-palette-color="accent" id="none"><path d="M72.3 12.3L72.3 12.3 72.3 12.3l-0.4-0.8H28.2L6.3 50l21.8 38.5h43.7L93.7 50 72.3 12.3zM33.3 25.3L9.9 47.7l18.6-32.8L33.3 25.3zM70.7 14.8l6.4 35.7L36.9 25.8 70.7 14.8zM35.5 27.3l41 25.2-41 23.3V27.3zM77 54.5l-7.2 30.8-32.6-8.1L77 54.5zM33.5 75L9.9 50.5l23.6-22.7V75zM33.2 77.6l-4.6 7.7L11.5 55.1 33.2 77.6zM35 78.6l31.4 7.9H30.2L35 78.6zM79.3 53.3l11.6-2.5L72.1 84 79.3 53.3zM90.7 48.9l-11.4 2.5-5.9-33.1L90.7 48.9zM35 24.3l-5-10.8h38.2L35 24.3z" fill="#ffffff" data-fill-palette-color="accent"></path></svg></g></g></svg></g><defs><mask id="382a79bb-50fd-4725-b192-8cc071d7e325"><rect width="640" height="400" fill="white"></rect><rect width="435.072" height="109.29569463707641" fill="black" y="68.9521526814618" x="-19.77600000000001" id="transform-me"></rect></mask></defs></svg><rect width="395.52" height="247.2" fill="none" stroke="none" visibility="hidden"></rect></g></svg></g></svg>